<?xml version="1.0" encoding="UTF-8"?>
<svg width="32px" height="32px" viewBox="0 0 32 32" version="1.1" xmlns="http://www.w3.org/2000/svg" xmlns:xlink="http://www.w3.org/1999/xlink">
    <title>icon_youtube</title>
    <defs>
        <rect id="path-1" x="0" y="100" width="2207" height="51"></rect>
        <filter x="-0.7%" y="-24.5%" width="101.3%" height="156.9%" filterUnits="objectBoundingBox" id="filter-2">
            <feOffset dx="0" dy="2" in="SourceAlpha" result="shadowOffsetOuter1"></feOffset>
            <feGaussianBlur stdDeviation="4.5" in="shadowOffsetOuter1" result="shadowBlurOuter1"></feGaussianBlur>
            <feColorMatrix values="0 0 0 0 0   0 0 0 0 0   0 0 0 0 0  0 0 0 0 0" type="matrix" in="shadowBlurOuter1"></feColorMatrix>
        </filter>
    </defs>
    <g id="Symbols" stroke="none" stroke-width="1" fill="none" fill-rule="evenodd">
        <g id="header" transform="translate(-1559.000000, -110.000000)">
            <g id="Rectangle">
                <use fill="black" fill-opacity="1" filter="url(#filter-2)" xlink:href="#path-1"></use>
                <use fill="#9EC9A5" fill-rule="evenodd" xlink:href="#path-1"></use>
            </g>
            <g id="icon_youtube" transform="translate(1559.000000, 110.000000)" fill="#FFFFFF" fill-rule="nonzero">
                <polygon id="Path" points="9.1 17.2 10.2 17.2 10.2 22.9 11.3 22.9 11.3 17.2 12.5 17.2 12.5 16.2 9.1 16.2"></polygon>
                <path d="M15.9,12.5 C16.1,12.5 16.2,12.5 16.3,12.4 C16.4,12.3 16.4,12.2 16.4,12.1 L16.4,9 C16.4,8.9 16.4,8.8 16.3,8.7 C16.2,8.6 16.1,8.6 15.9,8.6 C15.8,8.6 15.7,8.6 15.6,8.7 C15.5,8.8 15.5,8.9 15.5,9 L15.5,12 C15.5,12.1 15.5,12.3 15.6,12.3 C15.6,12.4 15.8,12.5 15.9,12.5 Z" id="Path"></path>
                <path d="M18.4,17.9 C18.2,17.9 18.1,17.9 17.9,18 C17.8,18.1 17.6,18.2 17.5,18.3 L17.5,16.1 L16.5,16.1 L16.5,22.8 L17.5,22.8 L17.5,22.4 C17.6,22.6 17.8,22.7 17.9,22.7 C18,22.8 18.2,22.8 18.4,22.8 C18.7,22.8 18.9,22.7 19.1,22.5 C19.3,22.3 19.3,22 19.3,21.7 L19.3,19 C19.3,18.6 19.2,18.3 19.1,18.1 C18.9,18 18.7,17.9 18.4,17.9 Z M18.3,21.8 C18.3,22 18.3,22.1 18.2,22.1 C18.1,22.2 18.1,22.2 17.9,22.2 C17.8,22.2 17.7,22.2 17.7,22.1 C17.6,22.1 17.5,22 17.5,21.9 L17.5,18.8 C17.6,18.7 17.6,18.7 17.7,18.6 C17.8,18.6 17.8,18.6 17.9,18.6 C18,18.6 18.1,18.6 18.2,18.7 C18.3,18.8 18.3,18.9 18.3,19.1 L18.3,21.8 Z" id="Shape"></path>
                <path d="M14.8,21.7 C14.7,21.8 14.6,21.9 14.5,22 C14.4,22.1 14.3,22.1 14.2,22.1 C14.1,22.1 14,22.1 14,22 C14,21.9 13.9,21.9 13.9,21.7 L13.9,18 L12.9,18 L12.9,22.1 C12.9,22.4 13,22.6 13.1,22.8 C13.2,22.9 13.4,23 13.6,23 C13.8,23 14,22.9 14.2,22.8 C14.4,22.7 14.6,22.5 14.8,22.3 L14.8,22.8 L15.8,22.8 L15.8,18 L14.8,18 L14.8,21.7 L14.8,21.7 Z" id="Path"></path>
                <path d="M15.9,0 C7.1,0 0,7.1 0,15.9 C0,24.7 7.1,31.8 15.9,31.8 C24.7,31.8 31.8,24.7 31.8,15.9 C31.7,7.1 24.6,0 15.9,0 Z M18.4,7.8 L19.5,7.8 L19.5,12 C19.5,12.1 19.5,12.2 19.6,12.3 C19.6,12.4 19.7,12.4 19.8,12.4 C19.9,12.4 20,12.4 20.1,12.3 C20.2,12.2 20.3,12.1 20.4,12 L20.4,7.8 L21.5,7.8 L21.5,13.2 L20.4,13.2 L20.4,12.6 C20.2,12.8 20,13 19.8,13.1 C19.6,13.2 19.4,13.3 19.2,13.3 C18.9,13.3 18.8,13.2 18.6,13.1 C18.5,12.9 18.4,12.7 18.4,12.4 L18.4,7.8 Z M14.3,9.1 C14.3,8.7 14.4,8.3 14.7,8.1 C15,7.9 15.4,7.7 15.9,7.7 C16.4,7.7 16.7,7.8 17,8.1 C17.3,8.4 17.4,8.7 17.4,9.1 L17.4,11.9 C17.4,12.4 17.3,12.7 17,13 C16.7,13.3 16.3,13.4 15.8,13.4 C15.3,13.4 14.9,13.3 14.6,13 C14.3,12.7 14.2,12.4 14.2,11.9 L14.2,9.1 L14.3,9.1 Z M11.3,5.9 L12.1,8.8 L12.2,8.8 L13,5.9 L14.3,5.9 L12.8,10.2 L12.8,13.3 L11.6,13.3 L11.6,10.4 L10,5.9 L11.3,5.9 Z M25.8,21.4 C25.8,23.4 24.2,25 22.2,25 L9.9,25 C7.9,25 6.3,23.4 6.3,21.4 L6.3,18.5 C6.3,16.5 7.9,14.9 9.9,14.9 L22.3,14.9 C24.3,14.9 25.9,16.5 25.9,18.5 L25.9,21.4 L25.8,21.4 Z" id="Shape"></path>
                <path d="M21.3,17.9 C20.9,17.9 20.5,18 20.2,18.3 C19.9,18.6 19.8,18.9 19.8,19.3 L19.8,21.5 C19.8,22 19.9,22.3 20.2,22.6 C20.5,22.9 20.8,23 21.2,23 C21.7,23 22.1,22.9 22.3,22.6 C22.5,22.3 22.7,22 22.7,21.5 L22.7,21.2 L21.7,21.2 L21.7,21.4 C21.7,21.7 21.7,21.9 21.6,22 C21.5,22.1 21.4,22.1 21.3,22.1 C21.1,22.1 21,22.1 21,22 C20.9,21.9 20.9,21.7 20.9,21.5 L20.9,20.6 L22.8,20.6 L22.8,19.3 C22.8,18.8 22.7,18.5 22.4,18.2 C22.1,18 21.8,17.9 21.3,17.9 Z M21.7,19.8 L20.8,19.8 L20.8,19.3 C20.8,19.1 20.8,18.9 20.9,18.9 C21,18.8 21.1,18.8 21.2,18.8 C21.3,18.8 21.5,18.8 21.5,18.9 C21.6,19 21.6,19.1 21.6,19.3 L21.6,19.8 L21.7,19.8 Z" id="Shape"></path>
            </g>
        </g>
    </g>
</svg>
