<?xml version="1.0" encoding="UTF-8"?>
<svg width="32px" height="32px" viewBox="0 0 32 32" version="1.1" xmlns="http://www.w3.org/2000/svg" xmlns:xlink="http://www.w3.org/1999/xlink">
    <title>icon_instagram</title>
    <defs>
        <rect id="path-1" x="0" y="100" width="2207" height="51"></rect>
        <filter x="-0.7%" y="-24.5%" width="101.3%" height="156.9%" filterUnits="objectBoundingBox" id="filter-2">
            <feOffset dx="0" dy="2" in="SourceAlpha" result="shadowOffsetOuter1"></feOffset>
            <feGaussianBlur stdDeviation="4.5" in="shadowOffsetOuter1" result="shadowBlurOuter1"></feGaussianBlur>
            <feColorMatrix values="0 0 0 0 0   0 0 0 0 0   0 0 0 0 0  0 0 0 0 0" type="matrix" in="shadowBlurOuter1"></feColorMatrix>
        </filter>
    </defs>
    <g id="Symbols" stroke="none" stroke-width="1" fill="none" fill-rule="evenodd">
        <g id="header" transform="translate(-1604.000000, -110.000000)">
            <g id="Rectangle">
                <use fill="black" fill-opacity="1" filter="url(#filter-2)" xlink:href="#path-1"></use>
                <use fill="#9EC9A5" fill-rule="evenodd" xlink:href="#path-1"></use>
            </g>
            <g id="icon_instagram" transform="translate(1604.000000, 110.000000)" fill="#FFFFFF" fill-rule="nonzero">
                <polygon id="Path" points="22.4 12.4 22.4 9.8 22.4 9.5 22 9.5 19.5 9.5 19.5 12.4"></polygon>
                <path d="M15.8,19.1 C17.5,19.1 18.8,17.7 18.8,16.1 C18.8,15.4 18.6,14.8 18.2,14.3 C17.6,13.5 16.8,13 15.7,13 C14.7,13 13.8,13.5 13.2,14.3 C12.8,14.8 12.6,15.4 12.6,16.1 C12.8,17.8 14.1,19.1 15.8,19.1 Z" id="Path"></path>
                <path d="M15.9,0 C7.1,0 0,7.1 0,15.9 C0,24.7 7.1,31.8 15.9,31.8 C24.7,31.8 31.8,24.7 31.8,15.9 C31.7,7.1 24.6,0 15.9,0 Z M24.4,14.3 L24.4,21.4 C24.4,23.2 22.9,24.7 21.1,24.7 L10.5,24.7 C8.7,24.7 7.2,23.2 7.2,21.4 L7.2,14.3 L7.2,10.8 C7.2,9 8.7,7.5 10.5,7.5 L21.1,7.5 C22.9,7.5 24.4,9 24.4,10.8 L24.4,14.3 L24.4,14.3 Z" id="Shape"></path>
                <path d="M20.5,16.1 C20.5,18.7 18.4,20.8 15.8,20.8 C13.2,20.8 11.1,18.7 11.1,16.1 C11.1,15.5 11.2,14.9 11.4,14.3 L8.8,14.3 L8.8,21.4 C8.8,22.3 9.5,23.1 10.5,23.1 L21.1,23.1 C22,23.1 22.8,22.4 22.8,21.4 L22.8,14.3 L20.2,14.3 C20.4,14.9 20.5,15.5 20.5,16.1 Z" id="Path"></path>
            </g>
        </g>
    </g>
</svg>
