
<svg width="60px" height="46px" viewBox="0 0 60 46" version="1.1" xmlns="http://www.w3.org/2000/svg" xmlns:xlink="http://www.w3.org/1999/xlink">
    <!-- Generator: Sketch 49.3 (51167) - http://www.bohemiancoding.com/sketch -->
    <desc>Created with Sketch.</desc>
    <defs></defs>
    <g id="HOMEPAGE" stroke="none" stroke-width="1" fill="none" fill-rule="evenodd">
        <g id="HOME" transform="translate(-1078.000000, -3129.000000)">
            <g id="map" transform="translate(720.000000, 2842.000000)">
                <g transform="translate(-34.000000, -31.000000)">
                    <rect id="map-icon" fill="#A5D4AE" x="392" y="318.522648" width="60" height="37.7735192"></rect>
                    <polyline id="map-icon" fill="#A5D4AE" points="416.483398 355.350035 421.713867 363.978883 427.896484 355.350035"></polyline>
                    <path d="M401.837,325.861 C402.922339,325.861 403.798663,326.183663 404.466,326.829 C405.14067,327.474337 405.478,328.343328 405.478,329.436 C405.478,330.521339 405.14067,331.386663 404.466,332.032 C403.798663,332.677337 402.922339,333 401.837,333 L399.516,333 L399.516,325.861 L401.837,325.861 Z M400.825,331.823 L401.837,331.823 C402.51167,331.823 403.057998,331.595669 403.476,331.141 C403.872002,330.700998 404.07,330.13267 404.07,329.436 C404.07,328.724663 403.872002,328.149002 403.476,327.709 C403.065331,327.261664 402.519003,327.038 401.837,327.038 L400.825,327.038 L400.825,331.823 Z M410.626,332.032 C410.288665,332.743337 409.746004,333.099 408.998,333.099 C408.051995,333.099 407.428668,332.72867 407.128,331.988 C407.017999,331.731332 406.963,331.419669 406.963,331.053 L406.963,327.643 L408.261,327.643 L408.261,330.921 C408.261,331.273002 408.345332,331.535166 408.514,331.7075 C408.682668,331.879834 408.889832,331.966 409.1355,331.966 C409.381168,331.966 409.588332,331.931167 409.757,331.8615 C409.925668,331.791833 410.072333,331.687334 410.197,331.548 C410.468335,331.232665 410.611333,330.811003 410.626,330.283 L410.626,327.643 L411.924,327.643 L411.924,333 L410.626,333 L410.626,332.032 Z M417.457,332.175 C417.126998,332.82767 416.621003,333.154 415.939,333.154 C415.256997,333.154 414.685002,332.893669 414.223,332.373 C413.746331,331.830331 413.508,331.141004 413.508,330.305 C413.508,329.468996 413.735331,328.790669 414.19,328.27 C414.637336,327.763997 415.194663,327.511 415.862,327.511 C416.529337,327.511 417.031665,327.778664 417.369,328.314 L417.369,325.454 L418.678,325.454 L418.678,333 L417.611,333 L417.457,332.175 Z M415.1855,329.1225 C414.939832,329.419501 414.817,329.817331 414.817,330.316 C414.817,330.814669 414.941665,331.216165 415.191,331.5205 C415.440335,331.824835 415.755665,331.977 416.137,331.977 C416.452335,331.977 416.734665,331.852335 416.984,331.603 C417.240668,331.346332 417.369,331.023669 417.369,330.635 L417.369,329.942 C417.354333,329.560665 417.226001,329.249001 416.984,329.007 C416.763999,328.786999 416.470668,328.677 416.104,328.677 C415.737331,328.677 415.431168,328.825499 415.1855,329.1225 Z M422.825,327.511 C423.184335,327.511 423.521665,327.567833 423.837,327.6815 C424.152335,327.795167 424.423666,327.969332 424.651,328.204 C425.157003,328.717336 425.41,329.428662 425.41,330.338 C425.41,331.232671 425.157003,331.936664 424.651,332.45 C424.196331,332.919336 423.58767,333.154 422.825,333.154 C422.06233,333.154 421.446336,332.919336 420.977,332.45 C420.470997,331.943997 420.218,331.240005 420.218,330.338 C420.218,329.421329 420.470997,328.710003 420.977,328.204 C421.439002,327.741998 422.054996,327.511 422.825,327.511 Z M423.782,329.0565 C423.561999,328.774165 423.255835,328.633 422.8635,328.633 C422.471165,328.633 422.150335,328.774165 421.901,329.0565 C421.651665,329.338835 421.527,329.762331 421.527,330.327 C421.527,330.891669 421.638832,331.315165 421.8625,331.5975 C422.086168,331.879835 422.392331,332.021 422.781,332.021 C423.169669,332.021 423.488665,331.879835 423.738,331.5975 C423.987335,331.315165 424.112,330.891669 424.112,330.327 C424.112,329.762331 424.002001,329.338835 423.782,329.0565 Z M428.842,330.393 L428.248,330.888 L428.248,333 L426.95,333 L426.95,325.454 L428.248,325.454 L428.248,329.535 L430.36,327.654 L432.12,327.654 L429.755,329.634 L432.252,333 L430.668,333 L428.842,330.393 Z M436.168,327.643 L437.466,327.643 L437.466,333 L436.168,333 L436.168,327.643 Z M436.014,325.927 C436.014,325.692332 436.083666,325.507167 436.223,325.3715 C436.362334,325.235833 436.560332,325.168 436.817,325.168 C437.066335,325.168 437.262499,325.235833 437.4055,325.3715 C437.548501,325.507167 437.62,325.692332 437.62,325.927 C437.62,326.161668 437.548501,326.346833 437.4055,326.4825 C437.262499,326.618167 437.066335,326.686 436.817,326.686 C436.560332,326.686 436.362334,326.618167 436.223,326.4825 C436.083666,326.346833 436.014,326.161668 436.014,325.927 Z M440.942,328.578 C441.294002,327.866663 441.858663,327.511 442.636,327.511 C443.296003,327.511 443.792832,327.727331 444.1265,328.16 C444.460168,328.592669 444.627,329.164663 444.627,329.876 L444.627,333 L443.329,333 L443.329,329.876 C443.329,329.479998 443.233668,329.181168 443.043,328.9795 C442.852332,328.777832 442.584668,328.677 442.24,328.677 C441.895332,328.677 441.600168,328.830998 441.3545,329.139 C441.108832,329.447002 440.978667,329.908997 440.964,330.525 L440.964,333 L439.666,333 L439.666,327.654 L440.799,327.654 L440.942,328.578 Z M402.5575,340.523 C402.924169,339.84833 403.459496,339.511 404.1635,339.511 C404.867504,339.511 405.386332,339.727331 405.72,340.16 C406.053668,340.592669 406.2205,341.164663 406.2205,341.876 L406.2205,345 L404.9225,345 L404.9225,341.876 C404.9225,341.479998 404.827168,341.181168 404.6365,340.9795 C404.445832,340.777832 404.178168,340.677 403.8335,340.677 C403.488832,340.677 403.193668,340.830998 402.948,341.139 C402.702332,341.447002 402.572167,341.908997 402.5575,342.525 L402.5575,345 L401.2595,345 L401.2595,337.454 L402.5575,337.454 L402.5575,340.523 Z M412.254,341.106 C412.345667,341.414002 412.3915,341.696332 412.3915,341.953 C412.3915,342.209668 412.376833,342.440666 412.3475,342.646 L408.8935,342.646 C408.908167,343.078669 409.014499,343.430665 409.2125,343.702 C409.410501,343.973335 409.711165,344.109 410.1145,344.109 C410.649836,344.109 410.968833,343.874336 411.0715,343.405 L412.3805,343.405 C412.2925,343.940336 412.046835,344.361998 411.6435,344.67 C411.225498,344.992668 410.715836,345.154 410.1145,345.154 C409.410496,345.154 408.820169,344.897336 408.3435,344.384 C407.852164,343.848664 407.6065,343.163004 407.6065,342.327 C407.6065,341.468996 407.852164,340.779669 408.3435,340.259 C408.812836,339.760331 409.403163,339.511 410.1145,339.511 C410.85517,339.511 411.430831,339.771331 411.8415,340.292 C412.024834,340.526668 412.162333,340.797998 412.254,341.106 Z M410.1255,340.545 C409.758831,340.545 409.472834,340.664165 409.2675,340.9025 C409.062166,341.140835 408.941167,341.446998 408.9045,341.821 L411.1815,341.821 C411.1815,341.241664 410.998169,340.853001 410.6315,340.655 C410.492166,340.581666 410.323501,340.545 410.1255,340.545 Z M416.9565,344.868 C416.472498,345.058668 416.091168,345.154 415.8125,345.154 C415.533832,345.154 415.290001,345.121 415.081,345.055 C414.871999,344.989 414.686834,344.890001 414.5255,344.758 C414.188165,344.457332 414.0195,344.043003 414.0195,343.515 L414.0195,340.523 L413.2715,340.523 L413.2715,339.654 L414.0195,339.654 L414.0195,338.246 L415.3175,338.246 L415.3175,339.654 L416.7695,339.654 L416.7695,340.523 L415.3175,340.523 L415.3175,343.471 C415.3175,343.911002 415.526498,344.131 415.9445,344.131 C416.157168,344.131 416.432165,344.072334 416.7695,343.955 L416.9565,344.868 Z M425.443,338.4495 C425.894002,338.841835 426.1195,339.40283 426.1195,340.1325 C426.1195,340.86217 425.894002,341.423165 425.443,341.8155 C424.991998,342.207835 424.363171,342.404 423.5565,342.404 L422.3465,342.404 L422.3465,345 L421.0375,345 L421.0375,337.861 L423.5565,337.861 C424.363171,337.861 424.991998,338.057165 425.443,338.4495 Z M423.5565,341.271 C423.959835,341.271 424.264166,341.164668 424.4695,340.952 C424.674834,340.739332 424.7775,340.466168 424.7775,340.1325 C424.7775,339.798832 424.674834,339.523834 424.4695,339.3075 C424.264166,339.091166 423.959835,338.983 423.5565,338.983 L422.3465,338.983 L422.3465,341.271 L423.5565,341.271 Z M429.2215,341.876 C429.646835,341.876 430.138164,341.945666 430.6955,342.085 L430.6955,341.557 C430.6955,341.182998 430.620334,340.906168 430.47,340.7265 C430.319666,340.546832 430.074002,340.457 429.733,340.457 C429.391998,340.457 429.129834,340.524833 428.9465,340.6605 C428.763166,340.796167 428.6715,340.988665 428.6715,341.238 L427.2525,341.238 C427.2525,340.62933 427.466998,340.189335 427.896,339.918 C428.325002,339.646665 428.924496,339.511 429.6945,339.511 C430.794506,339.511 431.505832,339.895996 431.8285,340.666 C431.938501,340.930001 431.9935,341.241665 431.9935,341.601 L431.9935,345 L430.8605,345 L430.7615,344.285 C430.416832,344.864336 429.888837,345.154 429.1775,345.154 C428.488163,345.154 427.952835,344.985335 427.5715,344.648 C427.219498,344.325332 427.0435,343.916502 427.0435,343.4215 C427.0435,342.926498 427.237831,342.545168 427.6265,342.2775 C428.015169,342.009832 428.54683,341.876 429.2215,341.876 Z M430.6955,342.91 C430.262831,342.792666 429.859502,342.734 429.4855,342.734 C428.781496,342.734 428.4295,342.968664 428.4295,343.438 C428.4295,343.636001 428.510166,343.806499 428.6715,343.9495 C428.832834,344.092501 429.091332,344.164 429.447,344.164 C429.802668,344.164 430.095999,344.044835 430.327,343.8065 C430.558001,343.568165 430.680833,343.269335 430.6955,342.91 Z M435.1835,340.71 C435.506168,339.939996 435.990163,339.555 436.6355,339.555 C436.760167,339.555 436.917832,339.580666 437.1085,339.632 L437.0865,340.93 C436.881166,340.886 436.679501,340.864 436.4815,340.864 C435.616162,340.864 435.1835,341.461661 435.1835,342.657 L435.1835,345 L433.8855,345 L433.8855,339.643 L435.1835,339.643 L435.1835,340.71 Z M440.3535,342.393 L439.7595,342.888 L439.7595,345 L438.4615,345 L438.4615,337.454 L439.7595,337.454 L439.7595,341.535 L441.8715,339.654 L443.6315,339.654 L441.2665,341.634 L443.7635,345 L442.1795,345 L440.3535,342.393 Z" id="Dudok-in-het-Park" fill="#F7F9F5"></path>
                </g>
            </g>
        </g>
    </g>
</svg>